{"title":"Dexter s06e04 HDTV XViD AC3 DTRG","uid":6768284,"size":697618478,"categoryP":"video","categoryS":"tv_shows","magnet":"?xt=urn:btih:05fea514161213edb7431c93915f92e6cab8cf7f&amp;dn=Dexter+s06e04+HDTV+XViD+AC3+DTRG&amp;tr=udp%3A%2F%2Ftracker.openbittorrent.com%3A80&amp;tr=udp%3A%2F%2Fopen.demonii.com%3A1337&amp;tr=udp%3A%2F%2Ftracker.coppersurfer.tk%3A6969&amp;tr=udp%3A%2F%2Fexodus.desync.com%3A6969","seeders":1,"leechers":0,"uploader":"SAFCukO09","files":2,"time":1319477588,"description":"Format : AVI\nFormat/Info : Audio Video Interleave\nFile size : 665 MiB\nDuration : 52mn 25s\nOverall bit rate : 1 774 Kbps\nWriting application : VirtualDubMod 1.5.10.2 (build 2540/release)\nWriting library : VirtualDubMod build 2540/release\n\nVideo\nID : 0\nFormat : MPEG-4 Visual\nFormat profile : Advanced Simple@L5\nFormat settings, BVOP : 2\nFormat settings, QPel : No\nFormat settings, GMC : No warppoints\nFormat settings, Matrix : Default (H.263)\nMuxing mode : Packed bitstream\nCodec ID : XVID\nCodec ID/Hint : XviD\nDuration : 52mn 25s\nBit rate : 1 381 Kbps\nWidth : 624 pixels\nHeight : 352 pixels\nDisplay aspect ratio : 16:9\nFrame rate : 23.976 fps\nColor space : YUV\nChroma subsampling : 4:2:0\nBit depth : 8 bits\nScan type : Progressive\nCompression mode : Lossy\nBits/(Pixel*Frame) : 0.262\nStream size : 518 MiB (78%)\nWriting library : XviD 64\n\nAudio\nID : 1\nFormat : AC-3\nFormat/Info : Audio Coding 3\nMode extension : CM (complete main)\nCodec ID : 2000\nDuration : 52mn 24s\nBit rate mode : Constant\nBit rate : 384 Kbps\nChannel(s) : 6 channels\nChannel positions : Front: L C R, Side: L R, LFE\nSampling rate : 48.0 KHz\nBit depth : 16 bits\nCompression mode : Lossy\nStream size : 144 MiB (22%)\nAlignment : Split accross interleaves\nInterleave, duration : 42 ms (1.00 video frame)\nInterleave, preload duration : 500 ms\n\n\n\n\n\n\n\nDexter: A Horse of a Different Color\nMuch to his own surprise, an emergency with Harrison and a new tableau from Gellar and Travis has Dexter leaning on Brother Sam and an unexpected winged messenger for support as he questions the idea of faith; with proof of a religiously motivated killer, Homicide hunts for a zealot, with Debra giving her first official press conference.\n\nSource: Showtime","torrent":{"xt":"urn:btih:05fea514161213edb7431c93915f92e6cab8cf7f","amp;dn":"Dexter+s06e04+HDTV+XViD+AC3+DTRG","amp;tr":["udp%3A%2F%2Ftracker.openbittorrent.com%3A80","udp%3A%2F%2Fopen.demonii.com%3A1337","udp%3A%2F%2Ftracker.coppersurfer.tk%3A6969","udp%3A%2F%2Fexodus.desync.com%3A6969"],"infoHash":"05fea514161213edb7431c93915f92e6cab8cf7f","infoHashBuffer":{"type":"Buffer","data":[5,254,165,20,22,18,19,237,183,67,28,147,145,95,146,230,202,184,207,127]},"announce":[],"urlList":[]}}